<svg xmlns="http://www.w3.org/2000/svg" viewBox="0 0 52 52" fill="none" stroke="#0f172a" stroke-width="1.2" stroke-linecap="round" stroke-linejoin="round" aria-hidden="true">
  <g transform="translate(26,26)">
    <line x1="0" y1="-20" x2="0" y2="20"/>
    <line x1="-20" y1="0" x2="20" y2="0"/>
    <line x1="-14" y1="-14" x2="14" y2="14"/>
    <line x1="14" y1="-14" x2="-14" y2="14"/>
    <line x1="-11.5" y1="-16.5" x2="11.5" y2="16.5"/>
    <line x1="16.5" y1="-11.5" x2="-16.5" y2="11.5"/>
    <path d="M0-20v6l-4 2 4 2v2l-5 1 5 1v2l-4 2 4 2"/>
    <path d="M0 20v-6l4-2-4-2v-2l5-1-5-1v-2l4-2-4-2"/>
    <path d="M-20 0h6l2 4 2-4h2l1 5 1-5h2l2 4 2-4"/>
    <path d="M20 0h-6l-2-4-2 4h-2l-1-5-1 5h-2l-2-4-2 4"/>
    <circle r="2.5" fill="#0f172a"/>
  </g>
</svg>
