<svg width="139" height="29" viewBox="0 0 139 29" fill="none" xmlns="http://www.w3.org/2000/svg">
<path d="M34.128 13.2296V11.2647C34.128 11.1129 34.2511 10.9901 34.4032 10.9901H36.3734C36.5255 10.9901 36.6486 10.8673 36.6486 10.7156V10.09C36.6486 8.45732 37.0948 7.20464 37.9886 6.33196C38.8824 5.45783 40.1196 5.02148 41.7044 5.02148H44.9552C45.1102 5.02148 45.2333 5.14863 45.2304 5.30178L45.1898 7.21476C45.1869 7.36358 45.0638 7.4835 44.9146 7.4835H42.0115C41.2235 7.4835 40.6223 7.66844 40.2065 8.03976C39.7907 8.40964 39.5836 8.96591 39.5836 9.70712V10.7156C39.5836 10.8673 39.7067 10.9901 39.8588 10.9901H43.4486C43.6007 10.9901 43.7238 11.1129 43.7238 11.2647V13.2296C43.7238 13.3814 43.6007 13.5042 43.4486 13.5042H40.2442C40.0921 13.5042 39.9689 13.627 39.9689 13.7787V23.8565C39.9689 24.0082 39.8458 24.131 39.6937 24.131H37.2585C37.1064 24.131 36.9833 24.0082 36.9833 23.8565V13.7787C36.9833 13.627 36.8601 13.5042 36.708 13.5042H34.4061C34.254 13.5042 34.1309 13.3814 34.1309 13.2296H34.128Z" fill="black"/>
<path d="M48.054 18.3617V23.8839C48.054 24.0356 47.9309 24.1584 47.7788 24.1584H45.3305C45.1784 24.1584 45.0553 24.0356 45.0553 23.8839V11.2921C45.0553 11.1404 45.1784 11.0176 45.3305 11.0176H47.66C47.8121 11.0176 47.9352 11.1404 47.9352 11.2921V12.682C47.9352 12.958 48.2974 13.0606 48.4437 12.8251C48.6595 12.4769 48.9377 12.1677 49.2752 11.8975C50.0097 11.3109 50.9252 11.0176 52.0218 11.0176H53.0098C53.1663 11.0176 53.2909 11.1476 53.2851 11.3022L53.201 13.4261C53.1952 13.5735 53.0736 13.6891 52.9258 13.6891H52.1551C50.8282 13.6891 49.8127 14.0821 49.1101 14.8666C48.4075 15.6526 48.0554 16.8172 48.0554 18.3603L48.054 18.3617Z" fill="black"/>
<path d="M63.9275 19.9364H66.3568C66.5365 19.9364 66.6697 20.1069 66.6248 20.2803C66.3047 21.52 65.647 22.5039 64.6532 23.2321C63.5696 24.0268 62.218 24.4227 60.5999 24.4227C58.6544 24.4227 57.0623 23.7869 55.8237 22.5169C54.5851 21.2469 53.9666 19.6055 53.9666 17.5943C53.9666 15.5831 54.5721 13.9678 55.7846 12.6977C56.9971 11.4277 58.553 10.792 60.455 10.792C62.3571 10.792 63.8116 11.3873 64.9792 12.5793C66.1468 13.7698 66.7306 15.31 66.7306 17.197C66.7306 17.5481 66.7175 17.8284 66.6929 18.0379C66.677 18.1766 66.5596 18.2821 66.4191 18.2821H57.2622C57.1029 18.2821 56.9768 18.4164 56.987 18.5739C57.0449 19.5116 57.3868 20.2991 58.0126 20.9348C58.7022 21.6356 59.5554 21.9866 60.5738 21.9866C61.414 21.9866 62.1108 21.8075 62.6642 21.4506C63.1626 21.1284 63.4972 20.6877 63.6681 20.1257C63.7029 20.0115 63.8101 19.935 63.9289 19.935L63.9275 19.9364ZM63.4233 16.4298C63.5856 16.4298 63.7145 16.2896 63.6986 16.1278C63.6189 15.3201 63.3089 14.6541 62.7685 14.1267C62.163 13.5358 61.3909 13.2396 60.4536 13.2396C59.5163 13.2396 58.7022 13.5358 58.0648 14.1267C57.4984 14.6512 57.1637 15.3158 57.058 16.1191C57.0362 16.2824 57.1666 16.4283 57.3318 16.4283H63.4219L63.4233 16.4298Z" fill="black"/>
<path d="M78.1332 19.9364H80.5626C80.7422 19.9364 80.8755 20.1069 80.8306 20.2803C80.5104 21.52 79.8527 22.5039 78.859 23.2321C77.7754 24.0268 76.4238 24.4227 74.8056 24.4227C72.8601 24.4227 71.268 23.7869 70.0295 22.5169C68.7909 21.2469 68.1723 19.6055 68.1723 17.5943C68.1723 15.5831 68.7778 13.9678 69.9903 12.6977C71.2029 11.4277 72.7587 10.792 74.6608 10.792C76.5629 10.792 78.0173 11.3873 79.1849 12.5793C80.3525 13.7698 80.9363 15.31 80.9363 17.197C80.9363 17.5481 80.9233 17.8284 80.8987 18.0379C80.8827 18.1766 80.7654 18.2821 80.6249 18.2821H71.468C71.3086 18.2821 71.1826 18.4164 71.1927 18.5739C71.2507 19.5116 71.5925 20.2991 72.2184 20.9348C72.9079 21.6356 73.7612 21.9866 74.7796 21.9866C75.6198 21.9866 76.3166 21.8075 76.87 21.4506C77.3683 21.1284 77.7029 20.6877 77.8739 20.1257C77.9086 20.0115 78.0158 19.935 78.1346 19.935L78.1332 19.9364ZM77.6291 16.4298C77.7913 16.4298 77.9202 16.2896 77.9043 16.1278C77.8246 15.3201 77.5146 14.6541 76.9743 14.1267C76.3687 13.5358 75.5966 13.2396 74.6593 13.2396C73.7221 13.2396 72.9079 13.5358 72.2705 14.1267C71.7041 14.6512 71.3695 15.3158 71.2637 16.1191C71.242 16.2824 71.3723 16.4283 71.5375 16.4283H77.6276L77.6291 16.4298Z" fill="black"/>
<path d="M85.8574 17.7914V23.8828C85.8574 24.0346 85.7343 24.1574 85.5822 24.1574H83.134C82.9819 24.1574 82.8587 24.0346 82.8587 23.8828V5.32237C82.8587 5.17066 82.9819 5.04785 83.134 5.04785H85.5822C85.7343 5.04785 85.8574 5.17066 85.8574 5.32237V12.1536C85.8574 12.4007 86.1602 12.522 86.3311 12.3414C87.3148 11.3069 88.5678 10.7897 90.0889 10.7897C91.61 10.7897 92.8312 11.3141 93.7772 12.3645C94.7231 13.4149 95.1969 14.8352 95.1969 16.6254V23.8814C95.1969 24.0331 95.0737 24.1559 94.9216 24.1559H92.4604C92.3083 24.1559 92.1851 24.0331 92.1851 23.8814V16.7843C92.1851 15.6819 91.9244 14.8367 91.4028 14.2501C90.8813 13.6635 90.1556 13.3702 89.227 13.3702C88.2984 13.3702 87.4712 13.7343 86.8251 14.4625C86.179 15.1907 85.856 16.3003 85.856 17.7899L85.8574 17.7914Z" fill="black"/>
<path d="M104.629 16.1909C104.859 16.1649 105.042 16.0724 105.179 15.9135C105.317 15.7546 105.385 15.5653 105.385 15.3442V15.1593C105.385 14.4802 105.159 13.9485 104.709 13.5642C104.258 13.1799 103.634 12.9891 102.838 12.9891C102.043 12.9891 101.342 13.1871 100.842 13.5844C100.405 13.9312 100.16 14.3892 100.105 14.9599C100.092 15.1015 99.9744 15.2127 99.831 15.2127H97.3915C97.2321 15.2127 97.1061 15.0769 97.1162 14.918C97.1901 13.7376 97.7203 12.771 98.7054 12.0168C99.7716 11.2004 101.149 10.793 102.838 10.793C104.633 10.793 106.007 11.2062 106.958 12.0298C107.909 12.8548 108.385 14.0525 108.385 15.6231V23.8847C108.385 24.0364 108.262 24.1592 108.11 24.1592H105.781C105.628 24.1592 105.505 24.0364 105.505 23.8847V22.9571C105.505 22.7014 105.185 22.5843 105.021 22.7808C104.706 23.1565 104.299 23.483 103.8 23.7561C102.99 24.2011 102.065 24.4251 101.02 24.4251C99.7383 24.4251 98.6822 24.0682 97.8565 23.353C97.0293 22.6378 96.6164 21.7247 96.6164 20.6136C96.6164 19.5025 96.9699 18.6457 97.6783 17.9666C98.3852 17.2875 99.4254 16.8599 100.796 16.6836L104.63 16.1938L104.629 16.1909ZM99.6006 20.2264C99.6006 20.7913 99.8064 21.2435 100.218 21.5831C100.629 21.9226 101.184 22.0931 101.882 22.0931C102.97 22.0931 103.847 21.7738 104.51 21.1337C105.174 20.4937 105.505 19.6845 105.505 18.7049V18.166C105.505 17.9825 105.329 17.8525 105.152 17.9031C104.865 17.984 104.448 18.062 103.9 18.1357L101.565 18.4131C100.936 18.4839 100.452 18.6732 100.112 18.9823C99.7716 19.2915 99.6006 19.7062 99.6006 20.2264Z" fill="black"/>
<path d="M113.522 17.249V23.8823C113.522 24.034 113.399 24.1568 113.247 24.1568H110.799C110.647 24.1568 110.524 24.034 110.524 23.8823V11.2905C110.524 11.1388 110.647 11.0159 110.799 11.0159H113.128C113.28 11.0159 113.403 11.1388 113.403 11.2905V12.1415C113.403 12.39 113.706 12.5085 113.879 12.3293C114.265 11.9248 114.716 11.5953 115.227 11.341C115.966 10.9755 116.782 10.792 117.675 10.792C119.276 10.792 120.537 11.3121 121.456 12.3539C122.376 13.3956 122.837 14.8462 122.837 16.7072V23.8837C122.837 24.0354 122.714 24.1582 122.562 24.1582H120.127C119.974 24.1582 119.851 24.0354 119.851 23.8837V16.8401C119.851 15.6842 119.596 14.8173 119.088 14.2394C118.579 13.6615 117.865 13.3725 116.945 13.3725C115.884 13.3725 115.048 13.7149 114.438 14.3983C113.828 15.0817 113.522 16.0324 113.522 17.2504V17.249Z" fill="black"/>
<path d="M126.581 22.516C125.413 21.246 124.83 19.6133 124.83 17.6194C124.83 15.6256 125.421 13.99 126.601 12.7099C127.782 11.4312 129.257 10.7911 131.025 10.7911C131.909 10.7911 132.757 10.9876 133.566 11.3806C134.104 11.6407 134.55 11.9614 134.906 12.34C135.074 12.5191 135.377 12.3934 135.377 12.1478V5.32237C135.377 5.17066 135.5 5.04785 135.652 5.04785H138.088C138.24 5.04785 138.363 5.17066 138.363 5.32237V23.8828C138.363 24.0346 138.24 24.1574 138.088 24.1574H135.758C135.606 24.1574 135.483 24.0346 135.483 23.8828V22.883C135.483 22.6244 135.163 22.5131 134.995 22.7096C134.624 23.1445 134.172 23.5029 133.639 23.786C132.842 24.2094 131.971 24.4218 131.025 24.4218C129.229 24.4218 127.749 23.786 126.581 22.516ZM127.869 17.6194C127.869 18.8895 128.218 19.9139 128.918 20.6897C129.616 21.4656 130.518 21.8543 131.624 21.8543C132.729 21.8543 133.614 21.4483 134.304 20.6363C134.993 19.8243 135.338 18.8013 135.338 17.566V17.3016C135.338 16.1905 134.989 15.2571 134.289 14.5029C133.591 13.7487 132.702 13.3716 131.622 13.3716C130.543 13.3716 129.603 13.7574 128.909 14.5289C128.215 15.3005 127.867 16.3306 127.867 17.6194H127.869Z" fill="black"/>
<path d="M0.975086 20.4034C3.18572 18.9123 6.22498 16.9459 8.40809 15.4721C6.08446 14.3567 2.76127 12.8006 0.437638 11.6852C0.0276707 11.4887 -0.124437 10.9816 0.111692 10.5929C0.821529 9.42258 1.7081 8.14389 2.41794 6.97357C2.62944 6.62391 3.07852 6.49966 3.44068 6.69182C4.79807 7.40991 7.36507 9.04114 9.75533 9.95284C14.1607 11.6332 15.8947 11.5985 16.9739 13.2846C18.0097 14.9014 17.1492 16.3925 17.0174 20.4886C16.9203 23.4708 16.9609 25.8071 16.9942 28.1579C17 28.6159 16.661 28.9829 16.2018 28.9858C14.8155 28.9973 13.5378 29.0002 12.0051 28.9858C11.5879 28.9814 11.2547 28.5119 11.2547 28.0957C11.2532 25.5658 11.2518 23.0359 11.2489 20.506C9.0455 21.9696 6.38433 23.7222 4.18384 25.1858C3.82747 25.4228 3.34507 25.326 3.11039 24.9691L0.763583 21.4639C0.530351 21.1114 0.625962 20.6389 0.975086 20.402V20.4034Z" fill="#FE6200"/>
<path d="M27.737 9.20427C25.0208 11.0277 22.971 12.3829 20.2635 14.2005L29.0133 18.3805C29.5927 18.655 29.5609 19.1246 29.3682 19.4468C28.6526 20.6489 28.0775 21.6617 27.3068 22.9231C26.9519 23.5053 26.6027 23.5805 26.2131 23.4056C24.4689 22.6211 22.8247 21.7918 21.0921 20.9841C20.2765 20.6041 19.684 19.8672 19.4899 18.9902C19.3175 18.2143 19.1451 17.3041 19.0046 16.2855C18.6772 13.8971 18.838 13.1617 18.176 12.172C17.5429 11.2256 16.8591 11.097 14.8064 9.8559C13.9792 9.35598 13.2578 8.87196 12.6508 8.44284C11.8888 7.90247 11.4673 7.02834 11.4325 6.09786C11.3688 4.38427 11.4224 2.4843 11.4166 0.80828C11.4166 0.364712 11.7889 0.0136151 12.2336 0.0121703C13.691 0.00639091 14.9571 -0.000833311 16.4028 0.0121703C16.8099 0.0165048 17.1271 0.402278 17.13 0.80828C17.1503 3.45379 17.1083 6.64256 17.1286 9.28807C19.7622 7.53981 21.87 6.1542 24.5109 4.40161C24.8658 4.1661 25.3439 4.26146 25.58 4.614L27.9456 8.13798C28.1832 8.49052 28.0891 8.96876 27.7356 9.20572L27.737 9.20427Z" fill="#FE6200"/>
</svg>
